HIERARCHY
ROOT Hips
{
  OFFSET -41.9672 68.7184 107.547
  CHANNELS 6 Xposition Yposition Zposition Zrotation Xrotation Yrotation
  JOINT LeftUpLeg
  {
    OFFSET 8.91 -6.27 -2.145
    CHANNELS 3 Zrotation Xrotation Yrotation
    JOINT LeftUpLegRoll
    {
      OFFSET 0 -22.7323 0
      CHANNELS 3 Zrotation Xrotation Yrotation
      JOINT LeftLeg
      {
        OFFSET 0 -22.1464 0
        CHANNELS 3 Zrotation Xrotation Yrotation
        JOINT LeftLegRoll
        {
          OFFSET 0 -22.0919 0
          CHANNELS 3 Zrotation Xrotation Yrotation
          JOINT LeftFoot
          {
            OFFSET 0 -18.609 0
            CHANNELS 3 Zrotation Xrotation Yrotation
            JOINT LeftToeBase
            {
              OFFSET 0 -6.26232 12.9547
              CHANNELS 3 Zrotation Xrotation Yrotation
              End Site
              {
                OFFSET 0 0 5.96686
              }
            }
          }
        }
      }
    }
  }
  JOINT RightUpLeg
  {
    OFFSET -8.91 -6.27 -2.145
    CHANNELS 3 Zrotation Xrotation Yrotation
    JOINT RightUpLegRoll
    {
      OFFSET 0 -22.7323 0
      CHANNELS 3 Zrotation Xrotation Yrotation
      JOINT RightLeg
      {
        OFFSET 0 -22.1464 0
        CHANNELS 3 Zrotation Xrotation Yrotation
        JOINT RightLegRoll
        {
          OFFSET 0 -22.0919 0
          CHANNELS 3 Zrotation Xrotation Yrotation
          JOINT RightFoot
          {
            OFFSET 0 -18.609 0
            CHANNELS 3 Zrotation Xrotation Yrotation
            JOINT RightToeBase
            {
              OFFSET 0 -6.26232 12.9547
              CHANNELS 3 Zrotation Xrotation Yrotation
              End Site
              {
                OFFSET 0 0.000942417 5.96686
              }
            }
          }
        }
      }
    }
  }
  JOINT Spine
  {
    OFFSET 0 7.43174 -2.06162
    CHANNELS 3 Zrotation Xrotation Yrotation
    JOINT Spine1
    {
      OFFSET -1.68772e-005 12.1899 -1.41951
      CHANNELS 3 Zrotation Xrotation Yrotation
      JOINT Spine2
      {
        OFFSET 0 11.8846 -1.0903
        CHANNELS 3 Zrotation Xrotation Yrotation
        JOINT Spine3
        {
          OFFSET 1.84329e-005 10.5137 1.04001
          CHANNELS 3 Zrotation Xrotation Yrotation
          JOINT Neck
          {
            OFFSET 0 11.5156 1.94702
            CHANNELS 3 Zrotation Xrotation Yrotation
            JOINT Head
            {
              OFFSET -1.26215e-005 11.0733 1.65432
              CHANNELS 3 Zrotation Xrotation Yrotation
              End Site
              {
                OFFSET 0 17.7047 0
              }
            }
          }
          JOINT LeftShoulder
          {
            OFFSET 7 4.56855 2.0674
            CHANNELS 3 Zrotation Xrotation Yrotation
            JOINT LeftArm
            {
              OFFSET 10.7073 0 0
              CHANNELS 3 Zrotation Xrotation Yrotation
              JOINT LeftArmRoll
              {
                OFFSET 15.2612 0 0
                CHANNELS 3 Zrotation Xrotation Yrotation
                JOINT LeftForeArm
                {
                  OFFSET 12.0443 0 0
                  CHANNELS 3 Zrotation Xrotation Yrotation
                  JOINT LeftForeArmRoll
                  {
                    OFFSET 16.3277 0 0
                    CHANNELS 3 Zrotation Xrotation Yrotation
                    JOINT LeftHand
                    {
                      OFFSET 10.3694 0 0
                      CHANNELS 3 Zrotation Xrotation Yrotation
                      JOINT LeftHandThumb1
                      {
                        OFFSET 4.34876 -0.798502 4.28243
                        CHANNELS 3 Zrotation Xrotation Yrotation
                        JOINT LeftHandThumb2
                        {
                          OFFSET 2.51259 -0.536099 0.707454
                          CHANNELS 3 Zrotation Xrotation Yrotation
                          JOINT LeftHandThumb3
                          {
                            OFFSET 2.54314 0 0
                            CHANNELS 3 Zrotation Xrotation Yrotation
                            JOINT LeftHandThumb4
                            {
                              OFFSET 2.66675 0 0
                              CHANNELS 3 Zrotation Xrotation Yrotation
                              End Site
                              {
                                OFFSET 1 0 0
                              }
                            }
                          }
                        }
                      }
                      JOINT LeftHandIndex1
                      {
                        OFFSET 8.82198 0.199729 3.47167
                        CHANNELS 3 Zrotation Xrotation Yrotation
                        JOINT LeftHandIndex2
                        {
                          OFFSET 4.22532 0 -0.000262656
                          CHANNELS 3 Zrotation Xrotation Yrotation
                          JOINT LeftHandIndex3
                          {
                            OFFSET 2.65394 0 -0.00016516
                            CHANNELS 3 Zrotation Xrotation Yrotation
                            JOINT LeftHandIndex4
                            {
                              OFFSET 1.95822 0 -0.00012217
                              CHANNELS 3 Zrotation Xrotation Yrotation
                              End Site
                              {
                                OFFSET 1 0 0
                              }
                            }
                          }
                        }
                      }
                      JOINT LeftHandMiddle1
                      {
                        OFFSET 8.80988 0.50089 1.30468
                        CHANNELS 3 Zrotation Xrotation Yrotation
                        JOINT LeftHandMiddle2
                        {
                          OFFSET 4.86325 0 0
                          CHANNELS 3 Zrotation Xrotation Yrotation
                          JOINT LeftHandMiddle3
                          {
                            OFFSET 2.76524 0 0
                            CHANNELS 3 Zrotation Xrotation Yrotation
                            JOINT LeftHandMiddle4
                            {
                              OFFSET 2.00563 0 0
                              CHANNELS 3 Zrotation Xrotation Yrotation
                              End Site
                              {
                                OFFSET 1 0 0
                              }
                            }
                          }
                        }
                      }
                      JOINT LeftHandRing1
                      {
                        OFFSET 8.89376 0.37992 -0.793159
                        CHANNELS 3 Zrotation Xrotation Yrotation
                        JOINT LeftHandRing2
                        {
                          OFFSET 4.53776 0 -0.000282138
                          CHANNELS 3 Zrotation Xrotation Yrotation
                          JOINT LeftHandRing3
                          {
                            OFFSET 2.30453 0 -0.000143448
                            CHANNELS 3 Zrotation Xrotation Yrotation
                            JOINT LeftHandRing4
                            {
                              OFFSET 1.92335 0 -0.00012044
                              CHANNELS 3 Zrotation Xrotation Yrotation
                              End Site
                              {
                                OFFSET 1 0 0
                              }
                            }
                          }
                        }
                      }
                      JOINT LeftHandPinky1
                      {
                        OFFSET 8.88227 -0.313027 -2.49036
                        CHANNELS 3 Zrotation Xrotation Yrotation
                        JOINT LeftHandPinky2
                        {
                          OFFSET 3.0441 0 0
                          CHANNELS 3 Zrotation Xrotation Yrotation
                          JOINT LeftHandPinky3
                          {
                            OFFSET 1.9745 0 0
                            CHANNELS 3 Zrotation Xrotation Yrotation
                            JOINT LeftHandPinky4
                            {
                              OFFSET 1.66661 0 0
                              CHANNELS 3 Zrotation Xrotation Yrotation
                              End Site
                              {
                                OFFSET 1 0 0
                              }
                            }
                          }
                        }
                      }
                    }
                  }
                }
              }
            }
          }
          JOINT RightShoulder
          {
            OFFSET -7 4.56855 2.0673
            CHANNELS 3 Zrotation Xrotation Yrotation
            JOINT RightArm
            {
              OFFSET -10.7073 0 0
              CHANNELS 3 Zrotation Xrotation Yrotation
              JOINT RightArmRoll
              {
                OFFSET -15.2612 0 0
                CHANNELS 3 Zrotation Xrotation Yrotation
                JOINT RightForeArm
                {
                  OFFSET -12.0444 0 0
                  CHANNELS 3 Zrotation Xrotation Yrotation
                  JOINT RightForeArmRoll
                  {
                    OFFSET -16.3276 0 0
                    CHANNELS 3 Zrotation Xrotation Yrotation
                    JOINT RightHand
                    {
                      OFFSET -10.3694 0 0
                      CHANNELS 3 Zrotation Xrotation Yrotation
                      JOINT RightHandThumb1
                      {
                        OFFSET -4.34838 -0.798501 4.28282
                        CHANNELS 3 Zrotation Xrotation Yrotation
                        JOINT RightHandThumb2
                        {
                          OFFSET -2.51253 -0.536099 0.707679
                          CHANNELS 3 Zrotation Xrotation Yrotation
                          JOINT RightHandThumb3
                          {
                            OFFSET -2.54159 0 0.0888232
                            CHANNELS 3 Zrotation Xrotation Yrotation
                            JOINT RightHandThumb4
                            {
                              OFFSET -2.66512 0 0.0931403
                              CHANNELS 3 Zrotation Xrotation Yrotation
                              End Site
                              {
                                OFFSET 1 0 0
                              }
                            }
                          }
                        }
                      }
                      JOINT RightHandIndex1
                      {
                        OFFSET -8.82167 0.199732 3.47246
                        CHANNELS 3 Zrotation Xrotation Yrotation
                        JOINT RightHandIndex2
                        {
                          OFFSET -4.22532 0 0.0001146
                          CHANNELS 3 Zrotation Xrotation Yrotation
                          JOINT RightHandIndex3
                          {
                            OFFSET -2.65394 0 7.19601e-005
                            CHANNELS 3 Zrotation Xrotation Yrotation
                            JOINT RightHandIndex4
                            {
                              OFFSET -1.95822 0 5.30956e-005
                              CHANNELS 3 Zrotation Xrotation Yrotation
                              End Site
                              {
                                OFFSET 1 0 0
                              }
                            }
                          }
                        }
                      }
                      JOINT RightHandMiddle1
                      {
                        OFFSET -8.80976 0.500893 1.30547
                        CHANNELS 3 Zrotation Xrotation Yrotation
                        JOINT RightHandMiddle2
                        {
                          OFFSET -4.86325 0 0.000131881
                          CHANNELS 3 Zrotation Xrotation Yrotation
                          JOINT RightHandMiddle3
                          {
                            OFFSET -2.76524 0 7.49854e-005
                            CHANNELS 3 Zrotation Xrotation Yrotation
                            JOINT RightHandMiddle4
                            {
                              OFFSET -2.00563 0 5.43888e-005
                              CHANNELS 3 Zrotation Xrotation Yrotation
                              End Site
                              {
                                OFFSET 1 0 0
                              }
                            }
                          }
                        }
                      }
                      JOINT RightHandRing1
                      {
                        OFFSET -8.89383 0.379922 -0.792364
                        CHANNELS 3 Zrotation Xrotation Yrotation
                        JOINT RightHandRing2
                        {
                          OFFSET -4.53776 0 0.000123049
                          CHANNELS 3 Zrotation Xrotation Yrotation
                          JOINT RightHandRing3
                          {
                            OFFSET -2.30453 0 6.24859e-005
                            CHANNELS 3 Zrotation Xrotation Yrotation
                            JOINT RightHandRing4
                            {
                              OFFSET -1.92335 0 5.21537e-005
                              CHANNELS 3 Zrotation Xrotation Yrotation
                              End Site
                              {
                                OFFSET 1 0 0
                              }
                            }
                          }
                        }
                      }
                      JOINT RightHandPinky1
                      {
                        OFFSET -8.8825 -0.313025 -2.48956
                        CHANNELS 3 Zrotation Xrotation Yrotation
                        JOINT RightHandPinky2
                        {
                          OFFSET -3.0478 0 8.26466e-005
                          CHANNELS 3 Zrotation Xrotation Yrotation
                          JOINT RightHandPinky3
                          {
                            OFFSET -1.9769 0 5.36145e-005
                            CHANNELS 3 Zrotation Xrotation Yrotation
                            JOINT RightHandPinky4
                            {
                              OFFSET -1.66864 0 4.5245e-005
                              CHANNELS 3 Zrotation Xrotation Yrotation
                              End Site
                              {
                                OFFSET 1 0 0
                              }
                            }
                          }
                        }
                      }
                    }
                  }
                }
              }
            }
          }
        }
      }
    }
  }
}
MOTION
Frames:	5
Frame Time:	0.0333333
-49.2027 98.9579 110.434 -0.146458 1.10951 4.37433 7.82385 -10.3555 4.87171 4.7287e-021 -5.76011e-018 0.0940728 1.27828e-008 14.9115 -1.77825 3.75741e-018 1.62326e-016 -2.65201 -2.12173 -3.5506 -0.0657687 -3.04134 -1.13272 -0.0601788 0.0279018 -9.70754 1.4751 2.83828e-018 -1.41091e-016 2.30489 -1.13682e-007 18.0401 -0.00868127 6.01822e-023 6.49821e-019 -0.0106127 0.605545 -7.47007 0.0350484 0.544873 -2.20064 0.0209232 0.468063 0.488207 -0.0443369 0.731747 0.787483 -0.068838 0.732018 0.787509 -0.0721035 0.73199 0.787535 -0.0721041 1.37028 15.8257 -6.48791 5.7964 -3.8448 -7.18294 -6.89842 0 8.91247 -62.9147 12.6938 -7.4996 0 31.6046 0 2.44006 7.76994 -17.4945 0 12.2097 0 -9.59723 0.285748 -3.40288 0.000223998 6.84512e-005 0.000320789 -0.000297586 -1.03919e-005 2 0.000360293 0 0 0 0 0 -19.9869 -0.683855 0.207836 -19.9903 0 0 -19.9978 0 0 0 0 0 -19.9737 -0.683423 1.08381 -19.9863 0 0 -19.9923 0 0 0 0 0 -19.9369 -0.682214 0.405777 -19.9538 0 0 -19.9752 0 0 0 0 0 -19.734 -0.67555 -1.34046 -19.7563 0 0 -19.8516 0 0 0 0 0 10.9762 -1.79317e-015 -16.0312 52.1164 12.8631 9.83051 5.20736e-015 36.5814 -1.72123e-015 -4.52969 9.84793 24.8536 -6.67492e-006 16.2389 -2.82134e-006 19.6719 0.699859 4.0351 0.000322072 -2.96601e-005 0.000139036 -0.00060615 2.11672e-005 -2 0.000210859 0 0 0 0 0 19.9866 -0.683847 -0.208077 19.9903 0 0 19.9978 0 0 0 0 0 19.9775 -0.683548 0.912424 19.9682 0 0 19.9667 0 0 0 0 0 19.9456 -0.6825 1.59049 19.933 0 0 19.9425 0 0 0 0 0 19.7431 -0.67585 3.3403 19.7134 0 0 19.7828 0 0 0 0 0 
-48.8121 99.0275 110.806 0.0754124 0.603874 4.554 7.40336 -9.32355 4.75133 7.26411e-020 -2.25761e-017 0.36871 -8.03947e-009 14.4093 -1.93058 4.45854e-018 1.76815e-016 -2.88892 -2.19664 -3.58072 -0.0686694 -3.04134 -1.13272 -0.0601788 -0.416339 -8.74472 1.28866 3.1523e-018 -1.48688e-016 2.42906 -1.09263e-007 17.8137 -0.0549537 3.51452e-021 4.96583e-018 -0.0811009 0.850125 -7.69781 0.0527081 0.544873 -2.20064 0.0209232 0.361618 0.447159 -0.0555663 0.562526 0.720098 -0.0813746 0.562503 0.720115 -0.0813879 0.56248 0.720132 -0.0814018 1.35681 16.3789 -6.69507 5.95483 -4.26323 -7.41867 -6.76335 0 8.50711 -63.6311 12.6314 -6.90118 0 31.4159 0 2.28939 8.09362 -15.8523 0 12.6136 0 -9.71153 0.340011 -4.00075 0.000223998 6.84512e-005 0.000320789 -0.000297586 -1.03919e-005 2 0.000360293 0 0 0 0 0 -19.8182 -0.678317 0.209841 -19.8215 0 0 -19.829 0 0 0 0 0 -19.8051 -0.677886 1.09181 -19.8175 0 0 -19.8234 0 0 0 0 0 -19.7685 -0.676683 0.41875 -19.7852 0 0 -19.8061 0 0 0 0 0 -19.5669 -0.670057 -1.31348 -19.5888 0 0 -19.6819 0 0 0 0 0 10.9259 -1.75678e-015 -15.614 52.156 11.5875 8.29566 4.95208e-015 35.2136 -1.57154e-015 -3.71263 7.60872 26.1079 -6.85734e-006 12.6215 -2.77586e-006 15.6205 0.256144 1.86731 0.000322072 -2.96601e-005 0.000139036 -0.00060615 2.11672e-005 -2 0.000210859 0 0 0 0 0 19.8179 -0.678308 -0.210082 19.8216 0 0 19.829 0 0 0 0 0 19.8088 -0.678008 0.904424 19.7996 0 0 19.798 0 0 0 0 0 19.777 -0.676963 1.57752 19.7646 0 0 19.7738 0 0 0 0 0 19.5757 -0.670347 3.31332 19.5464 0 0 19.6137 0 0 0 0 0 
-48.352 99.0284 111.005 0.134418 0.338428 4.44929 7.06812 -9.13612 4.5333 6.72157e-020 -2.17166e-017 0.354674 1.84157e-008 14.9904 -1.81611 3.92503e-018 1.65905e-016 -2.71053 -2.03226 -4.07617 -0.072327 -3.04134 -1.13272 -0.0601788 -0.803591 -8.32327 1.09091 3.28513e-018 -1.51787e-016 2.47973 -1.11042e-007 17.8567 0.0592085 4.77824e-021 -5.7902e-018 0.0945643 1.12393 -7.91668 0.0732831 0.544873 -2.20064 0.0209232 0.323115 0.386663 -0.0624238 0.502268 0.620544 -0.0921493 0.502252 0.620556 -0.0921595 0.502235 0.620568 -0.09217 0.864517 16.9422 -6.81272 5.92947 -4.71733 -7.73883 -7.0599 0 8.47307 -64.1501 12.7042 -6.36481 0 31.5073 0 2.18966 8.48985 -14.5199 0 13.1525 0 -10.49 0.458845 -4.99522 0.000223998 6.84512e-005 0.000320789 -0.000297586 -1.03919e-005 2 0.000360293 0 0 0 0 0 -19.6495 -0.672772 0.21183 -19.6528 0 0 -19.6601 0 0 0 0 0 -19.6364 -0.672342 1.09981 -19.6487 0 0 -19.6545 0 0 0 0 0 -19.6001 -0.671147 0.431749 -19.6166 0 0 -19.637 0 0 0 0 0 -19.3999 -0.664559 -1.28644 -19.4213 0 0 -19.5122 0 0 0 0 0 10.2106 -1.70859e-015 -15.2382 51.5254 11.1917 7.27748 4.96583e-015 35.2885 -1.57948e-015 -3.14466 5.74942 28.7414 -7.00012e-006 9.71526 -2.74819e-006 11.9137 0.077809 0.74575 0.000322072 -2.96601e-005 0.000139036 -0.00060615 2.11672e-005 -2 0.000210859 0 0 0 0 0 19.6492 -0.672764 -0.212071 19.6528 0 0 19.6602 0 0 0 0 0 19.64 -0.672461 0.896421 19.6311 0 0 19.6294 0 0 0 0 0 19.6084 -0.67142 1.56452 19.5962 0 0 19.605 0 0 0 0 0 19.4084 -0.664838 3.28628 19.3794 0 0 19.4447 0 0 0 0 0 
-47.784 99.1015 111.163 0.333405 0.0291974 3.87069 6.47728 -8.46235 4.2032 9.76578e-020 -2.61764e-017 0.427511 2.1191e-008 14.8335 -1.51258 2.6775e-018 1.37038e-016 -2.23864 -1.76426 -4.22759 -0.0651219 -3.04134 -1.13272 -0.0601788 -1.42884 -7.72197 0.744141 3.36643e-018 -1.53653e-016 2.51023 -1.03828e-007 17.428 0.427962 2.36283e-019 -4.07163e-017 0.664984 1.35761 -7.81097 0.0881979 0.544873 -2.20064 0.0209232 0.307758 0.29942 0.00571572 0.480569 0.477146 0.0182278 0.480542 0.477173 0.0182293 0.480514 0.477201 0.0182302 -0.833468 17.2376 -6.56912 6.30033 -5.01545 -8.3027 -8.20854 0 8.40794 -64.2225 12.8357 -5.70448 0 31.9809 0 1.98747 8.31836 -13.4884 0 12.8292 0 -10.2955 0.492327 -5.46088 0.000223998 6.84512e-005 0.000320789 -0.000297586 -1.03919e-005 2 0.000360293 0 0 0 0 0 -19.4808 -0.667222 0.211358 -19.484 0 0 -19.4913 0 0 0 0 0 -19.4678 -0.666793 1.10783 -19.48 0 0 -19.4857 0 0 0 0 0 -19.4317 -0.665605 0.444775 -19.448 0 0 -19.468 0 0 0 0 0 -19.2329 -0.659056 -1.25934 -19.2539 0 0 -19.3426 0 0 0 0 0 9.73985 -1.64132e-015 -14.5785 51.2826 10.6766 6.2594 4.90871e-015 34.9765 -1.5466e-015 -2.55315 4.38353 30.2591 -7.10919e-006 7.46005 -2.7319e-006 7.91016 -0.0192417 -0.278248 0.000322072 -2.96601e-005 0.000139036 -0.00060615 2.11672e-005 -2 0.000210859 0 0 0 0 0 19.4805 -0.667214 -0.211595 19.484 0 0 19.4914 0 0 0 0 0 19.4713 -0.666909 0.888413 19.4625 0 0 19.4608 0 0 0 0 0 19.4398 -0.665872 1.5515 19.4278 0 0 19.4363 0 0 0 0 0 19.241 -0.659325 3.25919 19.2124 0 0 19.2758 0 0 0 0 0 
-47.2495 99.1208 111.344 0.414288 -0.55408 3.1617 6.11614 -7.67793 4.06845 1.86803e-019 -3.62031e-017 0.591272 1.04616e-008 15.1081 -1.31376 1.99111e-018 1.18181e-016 -1.93046 -1.87639 -4.65323 -0.0762423 -3.04134 -1.13272 -0.0601788 -1.88427 -7.05178 0.491901 3.40872e-018 -1.54614e-016 2.52594 -1.02865e-007 17.4401 0.784576 7.88352e-019 -7.43696e-017 1.21468 1.45634 -7.95688 0.0967995 0.544873 -2.20064 0.0209232 0.281143 0.439909 0.0354185 0.439298 0.709231 0.0658194 0.43925 0.709262 0.0657924 0.439204 0.709294 0.0657645 -1.87463 16.8287 -6.22778 5.84375 -6.79444 -8.25282 -9.52533 0 9.11528 -63.4056 13.344 -6.94777 0 32.5437 0 1.75052 8.09306 -12.2482 0 12.4213 0 -10.4769 0.562735 -6.13198 0.000223998 6.84512e-005 0.000320789 -0.000297586 -1.03919e-005 2 0.000360293 0 0 0 0 0 -19.3121 -0.661666 0.210853 -19.3152 0 0 -19.3225 0 0 0 0 0 -19.2991 -0.661239 1.11584 -19.3112 0 0 -19.3168 0 0 0 0 0 -19.2633 -0.660057 0.457826 -19.2793 0 0 -19.2989 0 0 0 0 0 -19.0659 -0.653547 -1.23219 -19.0864 0 0 -19.173 0 0 0 0 0 9.71538 -1.76823e-015 -16.0644 50.1161 11.0859 7.34251 5.06459e-015 35.8223 -1.63691e-015 -2.21191 3.51095 32.2401 -7.17657e-006 6.05458 -2.72398e-006 5.04042 -0.0440931 -1.00171 0.000322072 -2.96601e-005 0.000139036 -0.00060615 2.11672e-005 -2 0.000210859 0 0 0 0 0 19.3118 -0.661658 -0.211085 19.3153 0 0 19.3225 0 0 0 0 0 19.3025 -0.661352 0.880401 19.2939 0 0 19.2921 0 0 0 0 0 19.2712 -0.660318 1.53845 19.2594 0 0 19.2675 0 0 0 0 0 19.0737 -0.653807 3.23204 19.0455 0 0 19.1068 0 0 0 0 0 
